<svg xmlns="http://www.w3.org/2000/svg" viewBox="0 0 340 340"><g id="Layer_11" data-name="Layer 11"><path d="M243.079,260.022a3.5,3.5,0,0,0-3.5,3.5v.761a3.5,3.5,0,0,0,7,0v-.761A3.5,3.5,0,0,0,243.079,260.022Z"/><path d="M96.922,268.937a3.5,3.5,0,0,0,3.5-3.5v-.981a3.5,3.5,0,0,0-7,0v.981A3.5,3.5,0,0,0,96.922,268.937Z"/><path d="M282.838,325.486a12.478,12.478,0,0,0,2.81-10.109c-1.413-8.628-3.972-14.117-6.221-17.48a11.839,11.839,0,0,0-2.706-21.41c1.019-13.184,1.3-48.89-21.394-75.163a36.375,36.375,0,0,1-8.982-21.7c-.625-10.341-2.486-25.3-7.8-37.825a28.413,28.413,0,0,0-24.095-17.557c-10.987-.924-21.74,4.2-27.406,13.063a3.5,3.5,0,0,0,5.9,3.771c4.284-6.7,12.494-10.567,20.921-9.859A21.251,21.251,0,0,1,232.1,144.534c4.922,11.61,6.662,25.722,7.254,35.516a43.317,43.317,0,0,0,10.671,25.85c20.988,24.3,20.672,57.735,19.712,70.06H189.986a8.114,8.114,0,0,1-4.385-7.487c.01-.113.016-.225.016-.338v-2.518a7.661,7.661,0,0,1,7.652-7.653h15.109c19.422,0,24.16-11.018,25.258-17.588a11.762,11.762,0,0,0,5.943-1.842v11.824a3.5,3.5,0,0,0,7,0v-16.04c0-10.966-4.929-14.619-6.7-15.579a11.8,11.8,0,0,0-3.027-1.477c-8.744-5.2-8.632-16.382-8.62-16.974V179.966c0-14.21-3.1-24.231-9.213-29.782a15.412,15.412,0,0,0-10.893-4.3H131.867a15.417,15.417,0,0,0-10.886,4.3c-6.113,5.551-9.213,15.572-9.213,29.782v20.407c.011.514.123,11.687-8.641,16.9a11.824,11.824,0,0,0-2.993,1.46c-1.716.92-6.713,4.546-6.713,15.589v14.3a3.5,3.5,0,0,0,7,0V238.534a11.755,11.755,0,0,0,5.941,1.842c1.109,6.683,5.889,17.588,25.259,17.588h15.109a7.661,7.661,0,0,1,7.652,7.653v2.518c0,.085.007.213.013.3a8.108,8.108,0,0,1-4.261,7.463c-.033.019-.059.045-.091.064H70.257c-1-12.671-1.222-45.824,19.714-70.061a43.319,43.319,0,0,0,10.672-25.849c.592-9.794,2.331-23.906,7.253-35.517a21.255,21.255,0,0,1,18.189-13.309c8.408-.726,16.618,3.114,20.923,9.782a3.5,3.5,0,0,0,5.881-3.8c-5.693-8.818-16.447-13.906-27.407-12.959A28.42,28.42,0,0,0,101.451,141.8c-5.31,12.526-7.17,27.484-7.8,37.825a36.383,36.383,0,0,1-8.981,21.7c-22.635,26.2-22.453,61.606-21.4,75.164a11.838,11.838,0,0,0-2.7,21.409c-2.249,3.363-4.808,8.852-6.221,17.48a12.5,12.5,0,0,0,12.331,14.515H273.317A12.474,12.474,0,0,0,282.838,325.486ZM211.865,169.014a11.9,11.9,0,0,0,7.02-6.126c1.368,3.906,2.347,9.378,2.347,17.078v20.225a30.252,30.252,0,0,0,4.922,16.5h-40.6a9.75,9.75,0,0,1-3.6-4.215,12.089,12.089,0,0,1-1.038-5.086v-1.327a10.008,10.008,0,0,1,8.185-9.733C207.074,192.851,211.762,178.431,211.865,169.014Zm-37.859,40.261a18.489,18.489,0,0,0,1.586,6.125c.2.445.426.872.659,1.29h-12.5c.233-.418.455-.845.659-1.29a19.026,19.026,0,0,0,1.679-8.011v-1.327a17.018,17.018,0,0,0-13.855-16.605c-10.651-2.061-14.736-8.75-16.237-14.5H186.33s3.188,5.438-5.417,11.877C180.913,186.836,171.275,194.479,174.006,209.275Zm-42.232-56.392h61.6a10.847,10.847,0,0,1-.588,9.708H131.774a4.854,4.854,0,1,1,0-9.708Zm-13.006,47.405V179.966c0-7.7.979-13.173,2.347-17.078a11.9,11.9,0,0,0,7.077,6.146c.176,6.955,2.747,23.433,22.711,27.3a10.007,10.007,0,0,1,8.184,9.733v1.327a12.089,12.089,0,0,1-1.038,5.086,9.76,9.76,0,0,1-3.6,4.215h-40.61A30.122,30.122,0,0,0,118.768,200.288ZM106.774,233.4a4.833,4.833,0,0,1-3.009-8.632,6.311,6.311,0,0,1,3.009-1.075H213.813c.767,2.349,1.6,6.459-.415,9.707Zm39.957,17.567H131.622c-9.452,0-14.264-3.043-16.6-6.846h66.819s.978,3.423-4.489,8.669a18.823,18.823,0,0,0-5.226,8.415,26.3,26.3,0,0,0,.268,14.758H159.57a15.751,15.751,0,0,0,1.813-7.937v-2.406A14.669,14.669,0,0,0,146.731,250.964Zm-79.957,32H247.547c.76,2.111,1.189,5.739-2.18,9.707H66.774a4.854,4.854,0,1,1,0-9.707Zm181.033,39.932H66.683a5.5,5.5,0,0,1-5.423-6.384c1.174-7.169,3.192-11.62,4.837-14.235H244.881A27.8,27.8,0,0,1,247.807,322.892Z"/><path d="M213.672,100.44a3.437,3.437,0,0,0,3.305-3.685q-.048-.862-.106-1.7a3.5,3.5,0,1,0-6.983.494q.056.78.1,1.585A3.5,3.5,0,0,0,213.672,100.44Z"/><path d="M198.431,65.621A3.5,3.5,0,0,0,200.3,70.2a8.717,8.717,0,0,1,4.322,3.95,39.132,39.132,0,0,1,3.3,8.689A3.5,3.5,0,1,0,214.7,81.08a46.068,46.068,0,0,0-3.913-10.25,15.647,15.647,0,0,0-7.769-7.078A3.5,3.5,0,0,0,198.431,65.621Z"/><path d="M183.582,75.885a4.065,4.065,0,0,0,4.833-1.069c.4-.507,1.482-2.128,1.7-2.376a3.5,3.5,0,1,0-5.215-4.669c-.391.437-1.977,2.632-2.391,3.281A3.5,3.5,0,0,0,183.582,75.885Z"/><path d="M180.213,83.78a3.5,3.5,0,0,0-4.365,2.334c-6.705,22.125-4.807,48.6-4.723,49.713a3.5,3.5,0,0,0,3.486,3.236c.088,0,.177,0,.265-.009a3.5,3.5,0,0,0,3.229-3.752c-.02-.261-1.877-26.307,4.442-47.158A3.5,3.5,0,0,0,180.213,83.78Z"/><path d="M161.4,137.31c.089.007.177.01.265.01a3.5,3.5,0,0,0,3.486-3.239c1.285-17.165-.265-31.791-4.607-43.47a14.788,14.788,0,0,0-10.04-9.227,14.966,14.966,0,0,0-13.346,2.695,3.5,3.5,0,0,0,4.4,5.448,7.951,7.951,0,0,1,7.1-1.393,7.777,7.777,0,0,1,5.332,4.916c3.988,10.727,5.4,24.357,4.188,40.508A3.5,3.5,0,0,0,161.4,137.31Z"/><path d="M128.978,99.056c-.489,1.547-.7,2.473-.719,2.573a3.491,3.491,0,0,0,2.661,4.164,3.63,3.63,0,0,0,4.175-2.655c0-.007.165-.731.557-1.973a3.5,3.5,0,1,0-6.674-2.109Z"/><path d="M166.774,83.818a3.5,3.5,0,0,0,3.494-3.349C171.3,56.437,177.536,37.948,188.292,27a3.5,3.5,0,0,0-4.994-4.906c-12.16,12.378-18.9,31.916-20.023,58.074a3.5,3.5,0,0,0,3.346,3.647Q166.7,83.818,166.774,83.818Z"/><path d="M203.859,17.437c.254,0,2.177-.338,2.216-.343a3.5,3.5,0,0,0-.608-6.974,19.109,19.109,0,0,0-2.368.4,3.5,3.5,0,0,0,.76,6.916Z"/></g></svg>