<svg xmlns="http://www.w3.org/2000/svg" viewBox="0 0 340 340"><g id="Layer_18" data-name="Layer 18"><path d="M69.873,196.639a32.712,32.712,0,0,1,7.7,24.042c-.807,10.593,2.452,19.666,9.425,26.236A40.294,40.294,0,0,0,114.5,257.8a46.414,46.414,0,0,1,21.427,5.681,57.328,57.328,0,0,0,21.563,6.377c.069,5.623.065,11.847-.014,18.633-3.487-3.574-5.789-6.19-5.835-6.242a3.494,3.494,0,0,0-5.9,1.045,34.636,34.636,0,0,0-2.245,13.256,72,72,0,0,0-30.8-6.758,3.495,3.495,0,0,0-1.5,6.577c5.452,3.078,9.993,8.244,13.1,12.5a26.063,26.063,0,0,0-8.375.756,3.5,3.5,0,0,0-2.336,4.422c5.473,17.1,18.892,19.324,19.461,19.41,0,0,3.8.523,4.375-2.831.342-2-1.4-3.76-3.294-4.085-.352-.06-7.783-1.444-12.316-10.719a18.386,18.386,0,0,1,8.583,1.718,3.5,3.5,0,0,0,4.665-4.737,69.53,69.53,0,0,0-10.929-15.018,66.319,66.319,0,0,1,21.543,7.777,3.682,3.682,0,0,0,3.091.355,3.506,3.506,0,0,0,2.243-4.014,34.357,34.357,0,0,1-.238-10.272,168.806,168.806,0,0,0,15.757,14.7,27.467,27.467,0,0,1,10.146,21.216,5.681,5.681,0,0,0,1.42,3.724l.043.049.265.3A5.61,5.61,0,0,0,182.6,333.5s44.45-.016,44.648-.049c.706-.119,17.359-3.073,25.49-16.639a3.558,3.558,0,0,0,.4-2.813,3.509,3.509,0,0,0-4.057-2.472,49.881,49.881,0,0,1-11.187.714,41.666,41.666,0,0,0,4.656-20.935,3.61,3.61,0,0,0-1.077-2.453,3.5,3.5,0,0,0-4.557-.247,110.288,110.288,0,0,1-13.339,8.6,31.273,31.273,0,0,0,.58-13.258,3.5,3.5,0,0,0-4.2-2.809c-.506.112-11.41,2.631-23.591,13.177-1.7-8.408-2.939-17.451-3.842-26.526a76.864,76.864,0,0,0,9.869-2.572,60.862,60.862,0,0,0,15.013-7.662,38.547,38.547,0,0,1,16.858-6.533,43.759,43.759,0,0,0,24.364-12.378c13.994-13.708,8.423-34.773,5.694-42.521,17.265-11.2,15.067-35.806,14.967-36.818-1.429-19.435-19.063-32.347-25.3-36.329,4.993-34.117-10.864-51.725-20.927-59.254A42.232,42.232,0,0,1,220.5,48.7C209.607,26.614,187.243,6.5,173.58,6.5c-13.452,0-22.627,13.639-25.371,18.3-17.6,3.847-24.77,14.977-27.687,23.775a41.071,41.071,0,0,1-17.208,21.55c-29.272,18.5-23.777,47.349-21.406,55.747-5.339,5.063-20.759,21.587-21.32,44.038A38.235,38.235,0,0,0,69.873,196.639ZM199.736,326.5H183.643a34.331,34.331,0,0,0-12.732-25.629c-2.232-1.789-4.443-3.726-6.53-5.652.466-26.3-.054-44.755-1.549-54.846a3.507,3.507,0,0,0-2.025-2.679c-.405-.182-39.151-17.995-47.041-48.57a6.718,6.718,0,0,1,5.014,3,51.071,51.071,0,0,0,27.472,20.758c.053.016.1.034.158.048a53.356,53.356,0,0,0,14.659,2.191,3.463,3.463,0,0,0,2.536-1.038,3.5,3.5,0,0,0,1.011-2.547c-.023-.931-1.91-81.326,1.763-131.266,4.8,22.223,11.49,58.519,11.089,86.747a3.5,3.5,0,0,0,3.5,3.549c.233,0,23.372-.387,26.18-33.871a6.206,6.206,0,0,1,4.238-5.364c.9,9.556,1.455,37.1-19.168,53.559a23.126,23.126,0,0,0-8.759,17.489C182.729,230.474,183.015,296.07,199.736,326.5ZM67.586,170.087c.584-23.372,20.384-40.272,20.581-40.437a3.509,3.509,0,0,0,1.017-3.953c-.486-1.259-11.564-31.049,17.869-49.652a48.083,48.083,0,0,0,20.113-25.264c3.508-10.583,11.568-17.119,23.954-19.426a3.509,3.509,0,0,0,2.472-1.841c.082-.16,8.395-16.014,19.988-16.014,9.853,0,30.179,17.083,40.642,38.3a49.258,49.258,0,0,0,14.646,17.528c11.008,8.238,23.039,24.438,17.845,54.836a3.5,3.5,0,0,0,1.756,3.653c.225.124,22.41,12.6,23.843,32.083.022.234,2.041,23.5-13.919,31.567a3.5,3.5,0,0,0-1.62,4.544,54.03,54.03,0,0,1,3.9,17.589c0,.006-1.651,21.625-31.349,18.786-23.355-2.232-34.957.26-38.851,1.428-.352-13.275-.2-24.568-.021-31.251a16.138,16.138,0,0,1,6.127-12.2,54.733,54.733,0,0,0,11.275-12.212c.091,0,.185,0,.275,0a44.207,44.207,0,0,0,7.413-.61c2.6,5.893,9.059,13.455,21.224,13.455l.352,0a21.593,21.593,0,0,0,3.341-.3,3.5,3.5,0,1,0-1.151-6.905,14.536,14.536,0,0,1-2.275.2l-.264,0c-8.525,0-12.562-4.95-14.322-8.312,9.939-3.768,15.816-11.227,19.221-17.882a3.557,3.557,0,0,0-.887-4.418,3.5,3.5,0,0,0-5.3,1.151c-3.543,6.963-10.436,15.016-23.466,16.391,9.968-20.673,6.063-43,5.833-44.247a3.5,3.5,0,0,0-3.877-2.838l-2.34.292a13.218,13.218,0,0,0-11.459,11.974c-1.627,19.41-10.6,25.1-15.694,26.766-.121-14.46-1.817-30.413-4.066-45.413-2.034-18.135,6.7-27.739,7.059-28.13a3.142,3.142,0,0,0,.215-.247c10.037-12.7,10.84-25.586,10.869-26.128a3.5,3.5,0,0,0-6.989-.388,44.03,44.03,0,0,1-9.292,22.075,34.419,34.419,0,0,0-5.822,9.766c-3.845-20.023-7.692-34.872-8.019-36.121a3.5,3.5,0,0,0-6.849.376c-2.655,18.053-3.823,46.044-4.268,73.185a30.612,30.612,0,0,0-14.248-7.638,25.657,25.657,0,0,1-3.259-1.072c10.371-19.58-.848-37.351-1.35-38.127a3.5,3.5,0,0,0-5.876,3.8c.1.154,9.381,14.858,1.165,30.8-8.141-6.474-10.056-16.417-10.155-16.962a3.5,3.5,0,0,0-6.893,1.218c.156.891,4.057,21.875,24.638,27.125,14.186,3.618,15.652,13.369,15.8,15.405-.218,27.662.2,52.273.393,61.539a45.037,45.037,0,0,1-8.8-1.642,12.286,12.286,0,0,1-5.616-9.961c-.863-25.835-16.432-39.284-17.094-39.844a3.5,3.5,0,0,0-4.528,5.338,40.155,40.155,0,0,1,6.81,8.5c-9.8.837-17.286-1.551-22.29-7.144a3.635,3.635,0,0,0-4.876-.588,3.5,3.5,0,0,0-.491,5.086c4.19,4.76,11.577,9.8,24.071,9.8a52.893,52.893,0,0,0,7.068-.5,53.506,53.506,0,0,1,4.334,19.579,19.623,19.623,0,0,0,.552,3.991,46.089,46.089,0,0,1-12.066-12.321,13.616,13.616,0,0,0-16.069-5.3l-.176.065a3.5,3.5,0,0,0-2.234,3.887c4.411,25.207,26.713,42.543,40.6,51.088-59.273,14.483-62.166-16.763-62.166-16.763a39.664,39.664,0,0,0-9.381-29.142A31.433,31.433,0,0,1,67.586,170.087Z"/><path d="M96.963,155.8a3.555,3.555,0,0,0,.661-.063,3.5,3.5,0,0,0,2.78-4.095c-.109-.574-.152-.934-.159-1a3.5,3.5,0,0,0-6.966.691c.01.107.071.69.25,1.626A3.5,3.5,0,0,0,96.963,155.8Z"/><path d="M249.183,182.447a3.484,3.484,0,0,0,1.945.593c2.032,0,3.265-2.095,3.433-2.367a3.5,3.5,0,0,0-1.14-4.817c-1.644-1.013-3.787-.236-5.2,1.736A3.462,3.462,0,0,0,249.183,182.447Z"/></g></svg>