<svg xmlns="http://www.w3.org/2000/svg" viewBox="0 0 340 340"><g id="Layer_29" data-name="Layer 29"><path d="M134.631,218.579a3.9,3.9,0,1,0-3.9-3.9A3.9,3.9,0,0,0,134.631,218.579Z"/><path d="M288.167,194.027a32.775,32.775,0,0,0-7.708-.662v-9.459a9.743,9.743,0,0,0,3.572-7.54V162.483a11.7,11.7,0,0,0,10.589-11.627V134.131a25.066,25.066,0,0,0-25.038-25.038h-69.55a25.066,25.066,0,0,0-25.038,25.038v16.725a11.7,11.7,0,0,0,11.682,11.683h1.276v25.3a3.5,3.5,0,1,0,7,0V170h38.762v6.366a2.761,2.761,0,0,1-2.758,2.757H204.183a3.5,3.5,0,0,0,0,7h41.742a3.5,3.5,0,0,0,0-7h-5.614a9.73,9.73,0,0,0,.4-2.757V170h15.623v6.366a9.768,9.768,0,0,0,9.757,9.757h1.411v10.282a36.022,36.022,0,0,0-4,2.067c-1.139.691-2.423,1.4-3.828,2.111a10.217,10.217,0,0,0-10.088-8.722H209.046a10.216,10.216,0,0,0-10.067,8.586A56.3,56.3,0,0,1,193.235,197c-11.885-8.169-26.324-11.126-39.614-8.11a45.886,45.886,0,0,0-15.887,6.9l-37.281-46.028h40.23a14.6,14.6,0,0,1,14.587,14.587V177.91a3.5,3.5,0,0,0,7,0V164.351a21.605,21.605,0,0,0-18.87-21.4L66.92,52.97a26.806,26.806,0,0,0-20.457-9.46H26.032c-9.219,0-17.185,4.6-20.79,12.015C1.905,62.387,2.938,70.338,8,76.792l51.784,65.972H43.142a21.611,21.611,0,0,0-21.587,21.587V187.6H17.73a9.363,9.363,0,0,0-9.352,9.353v8.488a9.363,9.363,0,0,0,9.352,9.352h3.825v29.322A21.611,21.611,0,0,0,43.142,265.7h14.99a3.5,3.5,0,1,0,0-7H43.142a14.6,14.6,0,0,1-14.587-14.587v-21.65H71.6a6.405,6.405,0,0,0,4.517-1.853,28.725,28.725,0,0,1,7.951-5.819h4.548a3.5,3.5,0,0,0,0-7H17.73a2.355,2.355,0,0,1-2.352-2.352v-8.488A2.356,2.356,0,0,1,17.73,194.6H89.151l15.727,20.1a41.063,41.063,0,1,0,38.363,64.93H243.807a41.017,41.017,0,0,0,66.2.149,35.126,35.126,0,0,0,11.473-1.261,3.485,3.485,0,0,0,1.216-.219,21.5,21.5,0,0,0,13.989-20.663C336.229,237.541,329.32,202.565,288.167,194.027ZM186.676,155.539a4.688,4.688,0,0,1-4.682-4.683V134.131a18.058,18.058,0,0,1,18.038-18.038h64.212c.147,0,7.624.3,7.624,11.585V148.5s.162,4.416-2.153,7.043Zm76.661,20.827V170h13.694v6.366a2.76,2.76,0,0,1-2.757,2.757h-8.18A2.76,2.76,0,0,1,263.337,176.366Zm-57.5,25.7a3.213,3.213,0,0,1,3.209-3.209h40.547a3.213,3.213,0,0,1,3.209,3.209v1.449a70.637,70.637,0,0,1-23.915,3.975,65.756,65.756,0,0,1-23.05-4ZM94.784,142.764,34.323,68.119c1.33-1.83,4.485-1.907,4.5-1.908h6.805a11.665,11.665,0,0,1,9.02,4.247L114.4,142.764ZM13.51,72.47c-3.424-4.361-4.143-9.422-1.973-13.884,2.253-4.633,7.215-7.634,13.142-8.031a15.889,15.889,0,0,0-1.846,9.288,24.18,24.18,0,0,0,5.239,11.68L145.689,216.736a7.428,7.428,0,0,1-4.421,12,41.326,41.326,0,0,0-13.1-10.176c-.013-.016-.02-.035-.032-.05Zm117.2,182.951A20.623,20.623,0,1,1,110.089,234.8,20.645,20.645,0,0,1,130.711,255.421ZM28.555,187.6V164.351a14.6,14.6,0,0,1,14.587-14.587H54.061L83.672,187.6Zm269.1,67.915a20.623,20.623,0,1,1-20.622-20.623A20.645,20.645,0,0,1,297.654,255.513Zm-20.695-41.162a41.041,41.041,0,0,0-40.792,45.8h-85.29a41.3,41.3,0,0,0,.281-4.731,40.768,40.768,0,0,0-2.5-14.045,10.732,10.732,0,0,0,6.122-2.709c8.882-7.452,3.654-17.316,3.654-17.316l-7.307-9.021-8.967-11.071a38.984,38.984,0,0,1,13.009-5.542c11.391-2.586,23.819-.014,34.1,7.052,7.783,5.349,20.973,11.725,39.616,11.725,17.932,0,30.7-5.457,38.251-10.035a27.157,27.157,0,0,1,19.607-3.578c31.865,6.611,41.033,30.665,42.669,51.614-.159,7.456-8.108,7.955-11.685,7.8a41,41,0,0,0-40.77-45.945Z"/></g></svg>