<svg xmlns="http://www.w3.org/2000/svg" viewBox="0 0 340 340"><g id="Layer_37" data-name="Layer 37"><path d="M300.581,295.054a11.835,11.835,0,0,0,10.78-11.771V269.53a3.5,3.5,0,0,0-3.5-3.5h-4.878V152.58A137.192,137.192,0,0,0,187.765,17.164,13.907,13.907,0,0,0,173.957,4.753h-18.7a13.9,13.9,0,0,0-13.835,12.825,137.2,137.2,0,0,0-112.783,135c0,75.637,61.535,137.172,137.172,137.172A136.956,136.956,0,0,0,256.937,255.1l8.888-7.586V266.03h-4.878a3.5,3.5,0,0,0-3.5,3.5v13.753a11.835,11.835,0,0,0,10.78,11.771l2.781,28.473a12.937,12.937,0,0,0,12.922,11.72h.948a12.936,12.936,0,0,0,12.921-11.72ZM187.846,24.269C249.724,34.833,295.983,89.411,295.983,152.58V266.03H272.825V152.58A106.957,106.957,0,0,0,187.846,47.865Zm0,30.745a100.009,100.009,0,1,1-46.478.573V80.856a75.772,75.772,0,1,0,46.478-.775Zm-46.013,33.1A13.9,13.9,0,0,0,155.257,98.5h18.7a13.91,13.91,0,0,0,13.617-11.165,68.765,68.765,0,1,1-45.741.778ZM35.639,152.58A129.58,129.58,0,0,1,141.368,24.7V48.4A107,107,0,1,0,246.2,223.111v31.844A130.163,130.163,0,0,1,35.639,152.58ZM290.833,322.847a5.961,5.961,0,0,1-5.955,5.4h-.948a5.962,5.962,0,0,1-5.955-5.4l-2.71-27.74h18.278Z"/></g></svg>