<svg xmlns="http://www.w3.org/2000/svg" viewBox="0 0 340 340"><g id="Layer_3" data-name="Layer 3"><path d="M332.344,254.584a3.483,3.483,0,0,0-2.595-.9,33.12,33.12,0,0,0-10.164,2.814l3.92-20.99a3.5,3.5,0,0,0-4.374-4.016c-1.347.372-2.655.777-3.937,1.2V213.366H330a3.5,3.5,0,0,0,3.5-3.5V173.649a3.5,3.5,0,0,0-3.5-3.5h-14.8v-37.09H330a3.5,3.5,0,0,0,3.5-3.5V93.342a3.5,3.5,0,0,0-3.5-3.5h-14.8v-26.5a11.473,11.473,0,0,0-11.46-11.46H278.363a11.473,11.473,0,0,0-11.46,11.46v26.5h-32.41v-26.5a11.473,11.473,0,0,0-11.46-11.46H197.662a11.472,11.472,0,0,0-11.46,11.46v26.5H153.791v-26.5a11.472,11.472,0,0,0-11.459-11.46H116.961a11.473,11.473,0,0,0-11.46,11.46v26.5H73.09v-26.5a11.473,11.473,0,0,0-11.459-11.46H36.259A11.473,11.473,0,0,0,24.8,63.337v26.5H10a3.5,3.5,0,0,0-3.5,3.5v36.217a3.5,3.5,0,0,0,3.5,3.5H24.8v37.09H10a3.5,3.5,0,0,0-3.5,3.5v36.217a3.5,3.5,0,0,0,3.5,3.5H24.8V238.5a73.212,73.212,0,0,0-11.938-.955,3.5,3.5,0,0,0-2.327,6.038c5.549,5.264,8.721,14.662,10.22,20.345a53.672,53.672,0,0,0-11.4.733,3.5,3.5,0,0,0-1.916,5.827c3.267,3.5,5.7,11.944,6.363,14.9a3.5,3.5,0,0,0,3.413,2.737,3.539,3.539,0,0,0,.766-.085,3.5,3.5,0,0,0,2.653-4.176,59.951,59.951,0,0,0-4.562-12.933,28.517,28.517,0,0,1,8.337.558,3.5,3.5,0,0,0,4.33-3.97c-.107-.637-2.227-12.824-8.218-22.513,9.528,1.1,25.916,4.773,35.743,16.982a3.5,3.5,0,0,0,5.984-.914A35.492,35.492,0,0,0,64.1,248.84c5.226,2.833,13.312,8.4,18.408,17.627a3.5,3.5,0,0,0,6.473-.9,85.965,85.965,0,0,1,3.688-11.557,46.76,46.76,0,0,1,7.381,10.469,3.5,3.5,0,0,0,5.794.565A79.4,79.4,0,0,1,131.731,246.1l1.863,17.114a3.5,3.5,0,0,0,6.031,2.017c.089-.1,8.122-8.615,15.251-13.724,1.074,1.153,6.752,7.866,10.812,12.8-1.427.175-2.3.329-2.421.351a3.5,3.5,0,0,0-2.185,5.529,78.381,78.381,0,0,1,8.569,15.707,3.5,3.5,0,0,0,6.524-2.536,88.972,88.972,0,0,0-6.19-12.423,64.484,64.484,0,0,1,14.92.616,3.5,3.5,0,0,0,4.009-4.183,77.454,77.454,0,0,0-8.213-20.991c9.449,1.77,25.7,7.078,36.551,22.984a3.5,3.5,0,0,0,6.309-1.22,111.81,111.81,0,0,0,2.188-15.355c4.595,1.862,21.64,12.2,29.363,20.224a97.561,97.561,0,0,0-5.208,10.266,3.5,3.5,0,0,0,6.459,2.7c.073-.177,6.625-15.623,17.335-26.146l.644,5.366a3.5,3.5,0,0,0,6.476,1.385c.116-.192,11.1-18.028,34.731-26.6L311.4,262.187a3.5,3.5,0,0,0,5.263,3.631,47.513,47.513,0,0,1,9.68-4.363c-.41,5.406-1.878,14.848-7.044,20.893a3.5,3.5,0,0,0,5.323,4.548c9.314-10.9,8.893-29.051,8.871-29.818A3.5,3.5,0,0,0,332.344,254.584ZM66.09,230.814a93.162,93.162,0,0,0-12.969-3.894,2.9,2.9,0,0,0-3.53,2.839v7.778a74.465,74.465,0,0,0-17.791-6.1V63.337a4.465,4.465,0,0,1,4.459-4.46H61.631a4.465,4.465,0,0,1,4.459,4.46ZM105.5,255.35c-.623.582-1.2,1.138-1.714,1.645-5.235-8.272-9.894-11.244-10.478-11.6a3.5,3.5,0,0,0-4.837,1.25,55.494,55.494,0,0,0-4.2,9.911A53.079,53.079,0,0,0,73.09,246.145V213.366H105.5Zm0-85.2H73.09v-37.09H105.5Zm41.29,60.55-4.6.671-.41-4.579a2.91,2.91,0,0,0-3.691-2.542c-9.979,2.819-20.428,9.469-25.591,13.043V63.337a4.465,4.465,0,0,1,4.46-4.46h25.371a4.465,4.465,0,0,1,4.459,4.46Zm39.411,9.645a58.92,58.92,0,0,0-13.052-1.854,3.5,3.5,0,0,0-2.569,5.877c5.22,5.644,8.5,14.259,10.164,19.617-2.291-.187-4.48-.246-6.489-.229-5.208-6.678-16.343-19.173-16.5-19.322a3.491,3.491,0,0,0-3.964-.579V213.366H186.2Zm0-70.195H153.791v-37.09H186.2Zm41.291,65.432c-3.219-1.759-7-3.665-9.7-5a2.907,2.907,0,0,0-4.157,2.15l-1.264,7.964A126.815,126.815,0,0,0,193.2,229.29V63.337a4.465,4.465,0,0,1,4.46-4.46h25.371a4.465,4.465,0,0,1,4.46,4.46Zm39.41,21.194a81.824,81.824,0,0,0-7.973,10.115c-7.093-7.012-16.876-12.963-24.437-16.962V213.366H266.9Zm0-86.626h-32.41v-37.09H266.9Zm41.291,49.792c-13.362,4.549-24.336,13.41-24.336,13.41l-1.188-2.017a2.9,2.9,0,0,0-4.487-.647l-4.28,4V63.337a4.465,4.465,0,0,1,4.46-4.46h25.371a4.465,4.465,0,0,1,4.46,4.46Z"/><path d="M48.945,107.551a3.9,3.9,0,1,0,3.9,3.9A3.9,3.9,0,0,0,48.945,107.551Z"/><path d="M48.945,187.859a3.9,3.9,0,1,0,3.9,3.9A3.9,3.9,0,0,0,48.945,187.859Z"/><circle cx="129.646" cy="111.45" r="3.899"/><circle cx="129.646" cy="191.758" r="3.899"/><circle cx="210.347" cy="111.45" r="3.899"/><circle cx="210.347" cy="191.758" r="3.899"/><circle cx="291.048" cy="111.45" r="3.899"/><circle cx="291.048" cy="191.758" r="3.899"/></g></svg>