<svg xmlns="http://www.w3.org/2000/svg" viewBox="0 0 340 340"><g id="Layer_42" data-name="Layer 42"><path d="M291.15,89.234a14.994,14.994,0,0,0,5.466-12.773c-.3-5.939-2.844-10.727-7.166-13.48a22.084,22.084,0,0,0-8.334-3.026,17.439,17.439,0,0,0,6.343-11.443,15.3,15.3,0,0,0-4.587-12.992A17.236,17.236,0,0,0,269.7,30.286a18.111,18.111,0,0,0-7.571,2.069,17.494,17.494,0,0,0-4.525-12.339,15,15,0,0,0-13.019-4.853,17.185,17.185,0,0,0-12.683,7.143,17.982,17.982,0,0,0-2.7,5.632,17.329,17.329,0,0,0-8.883-4.357A15,15,0,0,0,207.089,27.8a17.183,17.183,0,0,0-5.564,13.481,18.123,18.123,0,0,0,1.854,7.168,17.553,17.553,0,0,0-12.454,4.2,14.99,14.99,0,0,0-5.194,12.885,17.181,17.181,0,0,0,6.733,12.814c2.774,2.375,6.262,3.447,10.273,3.866a19.986,19.986,0,0,0-5.467,6.466,14.081,14.081,0,0,0-1.156,11.027,15.778,15.778,0,0,0,4.222,6.47,18.264,18.264,0,0,0,6.192,3.931,117.118,117.118,0,0,0-12.98,26.954,3.5,3.5,0,1,0,6.644,2.2A109.489,109.489,0,0,1,209,119.551l7.079,5.487a75.138,75.138,0,0,0-5.921,20.052c-.02,0-.038.012-.057.016a58.443,58.443,0,0,0-17.37,7.715,24.5,24.5,0,0,0-5.4-13.687,3.5,3.5,0,0,0-5.78.888,30.463,30.463,0,0,1-7.465,9.832c2.3-16.524-7.284-25.811-7.764-26.263a3.5,3.5,0,0,0-5.439.807c-2.858,4.991-7.494,9.136-13.78,12.321a55.008,55.008,0,0,0-5.865,3.436c-1.382-9.257-8.57-32.225-10.834-39.58l-.007-.019a17.714,17.714,0,0,0-1.169-8.8,18.127,18.127,0,0,0,7.416-.582A17.187,17.187,0,0,0,147.56,81.55a15.8,15.8,0,0,0,1.538-7.571,14.077,14.077,0,0,0-5.142-9.823h0a19.991,19.991,0,0,0-7.466-3.994c3.574-1.868,6.421-4.151,8.123-7.382a17.182,17.182,0,0,0,1.534-14.392,15,15,0,0,0-9.581-10.064,17.5,17.5,0,0,0-13.124.693,18.1,18.1,0,0,0-.921-7.347,17.178,17.178,0,0,0-10.143-10.478,14.991,14.991,0,0,0-13.86.956,17.3,17.3,0,0,0-6.65,7.324,18.019,18.019,0,0,0-4.585-4.24,17.18,17.18,0,0,0-14.423-1.96,14.993,14.993,0,0,0-10.312,9.311,17.5,17.5,0,0,0,.346,13.138,18.038,18.038,0,0,0-7.8.869,17.207,17.207,0,0,0-10.31,9.721,15.3,15.3,0,0,0,.528,13.767,17.427,17.427,0,0,0,10.117,8.3A22.078,22.078,0,0,0,48.8,74.263c-3,4.151-3.6,9.539-1.69,15.172A15,15,0,0,0,56.9,99.292a17.5,17.5,0,0,0,13.107-.969,18.081,18.081,0,0,0,1.076,7.325A17.176,17.176,0,0,0,81.442,115.91a16.374,16.374,0,0,0,5.855,1.131,14.958,14.958,0,0,0,8.773-2.909,17.2,17.2,0,0,0,4.909-5.422,17.927,17.927,0,0,0,3.788,3.247,16.83,16.83,0,0,0,6.58,2.489,195.762,195.762,0,0,1,4.98,27.253c-16.769-14.038-34.755-13.137-35.745-13.076a3.5,3.5,0,0,0-2,6.2c2.454,2.017,4.986,6.249,7.072,10.472-4.887-2.538-11.009-4.963-16.88-5.2-8.268-.337-10.435-3.861-10.7-4.367a3.374,3.374,0,0,0-3.749-2.275,3.584,3.584,0,0,0-3,3.467,34.016,34.016,0,0,0,6.017,19.777,25.283,25.283,0,0,1-8.352-3.712,3.5,3.5,0,0,0-5.625,2.827,27.216,27.216,0,0,0,7.769,19.3h-.419a3.5,3.5,0,0,0-3.5,3.5v22.786a11.344,11.344,0,0,0,9.97,11.242v64.032a11.344,11.344,0,0,0-9.97,11.241V310.69a3.5,3.5,0,0,0,3.5,3.5H74.27v4.969a10.915,10.915,0,0,0,10.9,10.9H117.72a10.915,10.915,0,0,0,10.9-10.9V314.19h69.547v4.969a10.915,10.915,0,0,0,10.9,10.9h32.548a10.915,10.915,0,0,0,10.9-10.9V314.19h23.558a3.5,3.5,0,0,0,3.5-3.5V287.9a11.343,11.343,0,0,0-9.969-11.241V212.63a11.343,11.343,0,0,0,9.969-11.242V178.6a3.489,3.489,0,0,0-.113-.842c10.039-8.078,10.792-20.522,10.823-21.124a3.5,3.5,0,0,0-1.055-2.683,3.45,3.45,0,0,0-2.709-.981,68.992,68.992,0,0,0-9.487,1.413A28.672,28.672,0,0,0,278.318,133a3.5,3.5,0,0,0-5.675-1.4,45.288,45.288,0,0,1-23.822,11.336,53.4,53.4,0,0,0-17.979,5.852,21.816,21.816,0,0,0-1.182-8.827,3.5,3.5,0,0,0-5.275-1.552,45.858,45.858,0,0,1-6.614,3.892,60.324,60.324,0,0,1,8.325-20.988,14.756,14.756,0,0,0,10.811,4.539,18.092,18.092,0,0,0,2.134-.129,17.2,17.2,0,0,0,12.285-7.061,17.908,17.908,0,0,0,2.323-4.416,17.2,17.2,0,0,0,6.563,3.231,15,15,0,0,0,14.253-3.742,17.184,17.184,0,0,0,5.847-13.36,18.09,18.09,0,0,0-1.7-7.207A17.5,17.5,0,0,0,291.15,89.234Zm-161.267,34.4c2.246,8.137,4.329,16.479,5,21.618a39.894,39.894,0,0,0-7.147,9.058c-1.209-1.749-2.455-3.374-3.725-4.894a195.937,195.937,0,0,0-3.895-28.206Zm-21.345-17.571a11.8,11.8,0,0,1-5.223-8.661l-.016-.131a3.5,3.5,0,0,0-6.962.717l.047.563a10.966,10.966,0,0,1-4.371,9.879,8.075,8.075,0,0,1-8.075.942,10.1,10.1,0,0,1-6.29-6.145,11.819,11.819,0,0,1,.9-9.792L80.71,89.52a3.5,3.5,0,0,0-1.018-4.533l-.291-.2a3.5,3.5,0,0,0-4.531.314l-4.842,4.745a11.025,11.025,0,0,1-10.962,2.8,8.039,8.039,0,0,1-5.332-5.452c-1.162-3.425-.9-6.557.734-8.82,4.961-6.86,17.507-8.182,17.628-8.2a3.5,3.5,0,0,0-.462-6.981c-4.514.163-16.507.594-20.113-6.34a8.29,8.29,0,0,1-.324-7.735,10.116,10.116,0,0,1,6.17-5.9A11.8,11.8,0,0,1,67.391,44.5l4.232,2.607a3.5,3.5,0,0,0,4.382-.58l.084-.088.075-.078a3.5,3.5,0,0,0,.077-4.741l-4.876-5.471a11.029,11.029,0,0,1-2.272-11.083A8.037,8.037,0,0,1,74.794,20,10.11,10.11,0,0,1,83.5,21.121,11.813,11.813,0,0,1,88.678,29.5l.839,5.95a3.5,3.5,0,0,0,3.672,3.006c.293-.017.589-.026.886-.034a3.5,3.5,0,0,0,3.4-3.716l-.4-6.446a11.021,11.021,0,0,1,5.058-10.119,8.026,8.026,0,0,1,7.611-.464,10.109,10.109,0,0,1,6.161,6.277,11.822,11.822,0,0,1-1.109,9.771l-2.932,5.054a3.5,3.5,0,0,0,5.423,4.309l5.952-5.592a11.03,11.03,0,0,1,11.019-2.564,8.038,8.038,0,0,1,5.215,5.566,10.108,10.108,0,0,1-.9,8.748c-.043.071-.083.142-.121.215-2.049,3.978-8.73,6.251-16.467,8.885l-2.261.772a3.5,3.5,0,0,0,.973,6.806c1.586.075,3.109.089,4.581.1,5.668.052,10.145.092,14.172,3.484h0a7.073,7.073,0,0,1,2.661,4.866,8.882,8.882,0,0,1-.9,4.234,10.111,10.111,0,0,1-6.542,5.85,11.828,11.828,0,0,1-9.728-1.565l-4.911-3.169a3.5,3.5,0,0,0-4.56,5.212l5.3,6.21a11.028,11.028,0,0,1,2.037,11.13A8.036,8.036,0,0,1,117,107.223,10.121,10.121,0,0,1,108.538,106.061ZM54.211,201.388V182.1H247.965v15.855a19,19,0,0,1-1.61,7.764H58.544A4.338,4.338,0,0,1,54.211,201.388Zm164.721,75.183V264.253a3.5,3.5,0,0,0-7,0v12.318H166.9V222.948l45.036,1.151v7.456a3.5,3.5,0,0,0,7,0v-7.278l24.594.629v51.665ZM111.613,247.4a3.5,3.5,0,0,0-3.5,3.5v25.676H64.181V220.325L159.9,222.77v53.8H115.113V250.9A3.5,3.5,0,0,0,111.613,247.4Zm-57.4,59.795V287.9a4.338,4.338,0,0,1,4.333-4.332H246.625a16.1,16.1,0,0,1,1.34,6.6V307.19ZM223.9,147a16.28,16.28,0,0,1-3.23,9.977v0l0,0h0l-.006.008v0l-.006.008h0l-.006.009h0l-.076.111-.006.01,0,.008v0l0,.006,0,.008,0,0,0,0,0,.006,0,0a3.5,3.5,0,0,0,5.785,3.933c.272-.363,6.7-8.725,23.534-11.251a52.419,52.419,0,0,0,22.853-9.306c.41,5.223-.645,13.177-9.243,18.286a3.5,3.5,0,0,0,3.286,6.172,64.254,64.254,0,0,1,15.781-4.53,21.939,21.939,0,0,1-11.309,14.278,3.575,3.575,0,0,0-.553.346H62.914a3.492,3.492,0,0,0-.673-.449,21.266,21.266,0,0,1-10.906-12.542,29.422,29.422,0,0,0,14.179,2.04,3.5,3.5,0,0,0,1.971-6.055,33.418,33.418,0,0,1-7.964-12.772,26.91,26.91,0,0,0,8.966,1.759c10.2.417,22.469,9.721,22.59,9.814a3.5,3.5,0,0,0,5.433-3.939,94.041,94.041,0,0,0-7.882-16.745c9.38,1.63,25.41,7.4,36.643,27.349a3.5,3.5,0,0,0,6.472-.984c.024-.115,2.642-11.568,18.525-19.615a41.258,41.258,0,0,0,13.808-10.855c2.567,4.355,5.521,12.749,1,24.757a3.5,3.5,0,0,0,4.788,4.391A42.862,42.862,0,0,0,184.7,148.481a19.329,19.329,0,0,1,.6,10.959,3.5,3.5,0,0,0,5.789,3.338A52.916,52.916,0,0,1,211.8,151.9,48.722,48.722,0,0,0,223.9,147ZM275.46,85.292l-6.251-2.626a3.5,3.5,0,0,0-4.335,1.394l-.187.286a3.5,3.5,0,0,0,.726,4.588l3.451,2.839a11.823,11.823,0,0,1,4.45,8.769,10.112,10.112,0,0,1-3.581,8.033,8.078,8.078,0,0,1-7.853,2.1,10.964,10.964,0,0,1-7.707-7.571l-.164-.541a3.5,3.5,0,0,0-6.731,1.918l.032.121a11.8,11.8,0,0,1-1.664,9.967,10.115,10.115,0,0,1-7.436,4.2,8.038,8.038,0,0,1-7.219-2.454,11.026,11.026,0,0,1-2.212-11.095l2.639-7.73a3.5,3.5,0,0,0-6.162-3.163l-3.4,4.757a11.821,11.821,0,0,1-8.464,5.043,10.1,10.1,0,0,1-8.239-3.024,8.888,8.888,0,0,1-2.4-3.6A7.077,7.077,0,0,1,203.436,92c2.493-4.638,6.638-6.327,11.887-8.465,1.365-.555,2.775-1.13,4.222-1.785a3.5,3.5,0,0,0-1.606-6.684l-2.384.115c-8.165.407-15.213.757-18.585-2.185-.062-.053-.126-.105-.192-.155a10.109,10.109,0,0,1-4.065-7.8,8.031,8.031,0,0,1,2.794-7.094,11.033,11.033,0,0,1,11.187-1.683l7.6,3a3.5,3.5,0,0,0,3.452-6l-4.591-3.617a11.818,11.818,0,0,1-4.633-8.673,10.11,10.11,0,0,1,3.41-8.108,8.039,8.039,0,0,1,7.246-2.375,11.025,11.025,0,0,1,8.434,7.542l2,6.139a3.5,3.5,0,0,0,4.531,2.2c.277-.1.553-.2.831-.293a3.5,3.5,0,0,0,2.311-4.15l-1.415-5.84a11.816,11.816,0,0,1,1.723-9.7,10.11,10.11,0,0,1,7.678-4.255,8.014,8.014,0,0,1,7.167,2.606,11.026,11.026,0,0,1,1.976,11.14L251.9,42.76a3.5,3.5,0,0,0,1.832,4.383l.173.08a3.5,3.5,0,0,0,4.312-1.067l2.972-3.983a11.809,11.809,0,0,1,8.843-4.9,10.149,10.149,0,0,1,7.912,3.212A8.291,8.291,0,0,1,280.5,47.8c-.794,7.775-12.1,11.8-16.357,13.309a3.5,3.5,0,0,0,2.14,6.662c.122-.035,12.271-3.431,19.412,1.115,2.355,1.5,3.753,4.315,3.935,7.927a8.04,8.04,0,0,1-2.944,7.035A11.028,11.028,0,0,1,275.46,85.292Z"/><path d="M236.816,59.017a12.321,12.321,0,1,0,16,6.908A12.335,12.335,0,0,0,236.816,59.017Z"/><circle cx="96.257" cy="63.487" r="12.111"/><path d="M115.113,235.055a3.5,3.5,0,0,0-7,0v2.284a3.5,3.5,0,0,0,7,0Z"/><path d="M215.432,243.391a3.5,3.5,0,0,0-3.5,3.5v.886a3.5,3.5,0,0,0,7,0v-.886A3.5,3.5,0,0,0,215.432,243.391Z"/></g></svg>